<svg xmlns="http://www.w3.org/2000/svg" viewBox="0 0 96 112" role="img" aria-label="Cybercon Solutions mark" fill="none">
  <path d="M20 12 H76 a8 8 0 0 1 8 8 V58 C84 85 65 101 48 107 C31 101 12 85 12 58 V20 a8 8 0 0 1 8 -8 Z" stroke="#FE019A" stroke-width="6" stroke-linejoin="round"/>
  <g stroke="#FE019A" stroke-width="2.5" stroke-linecap="round">
    <line x1="30" y1="38" x2="50" y2="28"/>
    <line x1="50" y1="28" x2="40" y2="58"/>
    <line x1="50" y1="28" x2="66" y2="44"/>
    <line x1="66" y1="44" x2="62" y2="66"/>
    <line x1="40" y1="58" x2="62" y2="66"/>
    <line x1="40" y1="58" x2="34" y2="78"/>
    <line x1="62" y1="66" x2="56" y2="86"/>
  </g>
  <g fill="#FE019A">
    <circle cx="30" cy="38" r="3.5"/>
    <circle cx="50" cy="28" r="5"/>
    <circle cx="66" cy="44" r="4"/>
    <circle cx="40" cy="58" r="6"/>
    <circle cx="62" cy="66" r="4"/>
    <circle cx="34" cy="78" r="3.5"/>
    <circle cx="56" cy="86" r="3.5"/>
  </g>
</svg>
